<?xml version="1.0" encoding="UTF-8"?>
<svg xmlns="http://www.w3.org/2000/svg" xmlns:xlink="http://www.w3.org/1999/xlink" width="244pt" height="261pt" viewBox="0 0 244 261" version="1.1">
<g id="surface1">
<path style=" stroke:none;fill-rule:nonzero;fill:rgb(0%,10.980392%,27.058824%);fill-opacity:1;" d="M 76.871094 120.871094 C 74.734375 120.761719 72.113281 120.46875 71.046875 120.21875 C 67.957031 119.496094 65.078125 118.609375 65.078125 118.375 C 65.078125 118.261719 67.71875 115.382812 70.945312 111.988281 C 80.683594 101.730469 85.589844 95.8125 91.949219 86.660156 C 102.226562 71.867188 109.835938 56.640625 116.425781 37.699219 C 117.390625 34.921875 118.316406 32.683594 118.476562 32.726562 C 118.898438 32.84375 122.144531 39.382812 124.011719 43.878906 C 127.925781 53.308594 130.425781 62.578125 131.84375 72.898438 C 132.550781 78.019531 132.554688 90.617188 131.855469 95.300781 C 131.15625 99.996094 130.144531 104.585938 129.492188 106.058594 C 128.824219 107.566406 127.816406 108.261719 122.65625 110.769531 C 110.996094 116.433594 97.6875 120.296875 88.320312 120.742188 C 81.925781 121.046875 80.667969 121.0625 76.871094 120.871094 Z M 76.871094 120.871094 "/>
<path style=" stroke:none;fill-rule:nonzero;fill:rgb(0%,10.980392%,27.058824%);fill-opacity:1;" d="M 106.167969 121.851562 C 106.230469 121.792969 108.53125 120.90625 111.277344 119.878906 C 120.816406 116.316406 125.0625 114.34375 129.34375 111.488281 C 133.519531 108.707031 135.046875 106.601562 136.042969 102.273438 C 136.730469 99.285156 136.71875 81.070312 136.027344 74.941406 C 134.773438 63.863281 133.183594 55.957031 130.351562 46.730469 C 129.347656 43.460938 128.53125 40.535156 128.539062 40.230469 C 128.546875 39.925781 128.777344 37.8125 129.050781 35.527344 C 129.960938 27.925781 129.675781 13.570312 128.507812 7.980469 C 128.304688 7.007812 128.199219 6.152344 128.265625 6.074219 C 128.425781 5.902344 129.367188 6.988281 134.128906 12.851562 C 139.519531 19.488281 140.898438 21.351562 144.796875 27.265625 C 149 33.628906 151.042969 37.148438 153.90625 42.96875 C 158.816406 52.933594 161.835938 62.28125 163.199219 71.757812 C 163.796875 75.898438 163.894531 85.011719 163.363281 86.757812 C 162.707031 88.917969 157.394531 94.671875 150.679688 100.496094 C 141.449219 108.503906 130.683594 114.675781 119.03125 118.632812 C 113.691406 120.449219 105.449219 122.507812 106.167969 121.851562 Z M 106.167969 121.851562 "/>
<path style=" stroke:none;fill-rule:nonzero;fill:rgb(0%,10.980392%,27.058824%);fill-opacity:1;" d="M 102.816406 130.277344 C 102.816406 127.234375 102.785156 127.257812 106.941406 126.90625 C 112.578125 126.425781 119.476562 125.050781 124.875 123.324219 C 131.507812 121.207031 137.210938 118.285156 147.136719 111.914062 C 148.238281 111.207031 150.140625 110.003906 151.363281 109.242188 L 153.582031 107.855469 L 155.476562 110.6875 C 156.519531 112.246094 158.109375 114.6875 159.007812 116.113281 L 160.644531 118.707031 L 159.960938 119.257812 C 158.113281 120.75 149.339844 124.570312 142.632812 126.800781 C 132.375 130.214844 123.0625 131.914062 112.386719 132.316406 C 110.097656 132.402344 107.007812 132.539062 105.519531 132.621094 L 102.816406 132.765625 Z M 102.816406 130.277344 "/>
<path style=" stroke:none;fill-rule:nonzero;fill:rgb(0%,10.980392%,27.058824%);fill-opacity:1;" d="M 159.101562 185.3125 C 158.742188 185.023438 158.511719 184.730469 158.585938 184.667969 C 158.664062 184.605469 160.097656 183.835938 161.777344 182.960938 C 163.457031 182.085938 164.949219 181.257812 165.09375 181.117188 C 165.738281 180.496094 164.253906 180.972656 161.089844 182.40625 C 159.21875 183.253906 157.351562 183.957031 156.945312 183.964844 C 156.539062 183.976562 155.085938 183.464844 153.71875 182.824219 L 151.234375 181.660156 L 152.207031 180.8125 C 158.191406 175.601562 164.292969 169.550781 168.1875 164.960938 C 171.480469 161.082031 177.453125 152.882812 177.453125 152.246094 C 177.453125 151.796875 176.679688 152.710938 173.75 156.609375 C 169.78125 161.898438 165.542969 166.707031 160.777344 171.335938 C 155.167969 176.78125 150.757812 180.3125 149.574219 180.308594 C 148.785156 180.308594 147.210938 179.296875 147.210938 178.789062 C 147.210938 178.277344 148.824219 175.035156 152.546875 168.058594 C 154.074219 165.199219 155.257812 162.796875 155.179688 162.714844 C 154.984375 162.523438 154.015625 163.988281 150.300781 170.078125 C 146.679688 176.015625 145.355469 177.90625 144.980469 177.679688 C 144.484375 177.371094 144.707031 176.203125 145.683594 173.988281 C 146.21875 172.777344 146.65625 171.707031 146.65625 171.609375 C 146.65625 171.132812 146.046875 171.917969 145.113281 173.605469 C 144.546875 174.632812 143.835938 175.746094 143.53125 176.078125 L 142.976562 176.6875 L 141.277344 175.835938 C 138.847656 174.609375 133.414062 171.5625 127.742188 168.242188 C 118.628906 162.90625 116.882812 162.375 113.550781 163.929688 C 111.28125 164.988281 109.121094 167.128906 107.382812 170.039062 C 104.863281 174.261719 102.277344 176.195312 98.894531 176.390625 C 96.777344 176.515625 95.367188 176.003906 94.601562 174.835938 C 94.054688 174.003906 93.980469 174.179688 96.800781 169.605469 C 97.664062 168.203125 98.75 166.085938 99.214844 164.902344 C 100.847656 160.722656 100.753906 160.851562 103.890625 158.523438 C 106.652344 156.472656 113 152.171875 115.394531 150.730469 C 116.660156 149.96875 117.945312 150.03125 123.765625 151.140625 C 133.515625 153 135.496094 153.292969 138.332031 153.300781 C 140.972656 153.308594 141.542969 153.210938 144.4375 152.257812 C 156.183594 148.386719 168.144531 141.085938 176.847656 132.46875 C 185.570312 123.832031 191.035156 115.070312 196.058594 101.679688 C 197.089844 98.9375 197.902344 97.144531 198.046875 97.292969 C 198.808594 98.050781 200.144531 105.800781 200.492188 111.484375 C 200.773438 116.105469 200.46875 125.90625 199.917969 129.839844 C 198.765625 138.058594 194.570312 149.457031 189.683594 157.632812 C 183.355469 168.222656 173.035156 178.847656 163.675781 184.410156 C 161.074219 185.953125 160.128906 186.140625 159.101562 185.3125 Z M 163.964844 178.089844 C 166.109375 177.429688 167.574219 176.339844 166.910156 175.894531 C 165.535156 174.980469 158.585938 176.589844 158.585938 177.828125 C 158.585938 178.730469 161.425781 178.871094 163.964844 178.089844 Z M 156.152344 174.296875 C 157.136719 173.183594 157.753906 171.472656 157.753906 169.882812 C 157.75 168.113281 157.316406 166.207031 156.914062 166.207031 C 156.085938 166.207031 154.980469 169.878906 154.980469 172.628906 C 154.980469 174.855469 155.28125 175.285156 156.152344 174.296875 Z M 168.910156 173.347656 C 169.511719 173.167969 170.527344 172.539062 171.164062 171.953125 L 172.320312 170.886719 L 169.546875 170.988281 C 167.308594 171.074219 166.46875 171.230469 165.210938 171.800781 C 162.507812 173.023438 162.679688 173.675781 165.714844 173.675781 C 166.871094 173.675781 168.308594 173.527344 168.910156 173.347656 Z M 161.269531 168.734375 C 162.453125 166.992188 162.746094 162.917969 161.78125 161.601562 C 161.460938 161.164062 161.390625 161.199219 160.980469 161.992188 C 160.261719 163.375 159.695312 165.90625 159.695312 167.738281 C 159.695312 170.113281 160.140625 170.394531 161.269531 168.734375 Z M 172.945312 168.007812 C 174.792969 167.164062 175.789062 166.324219 175.789062 165.601562 C 175.789062 165.164062 175.628906 165.117188 174.609375 165.257812 C 172.609375 165.539062 170.722656 166.160156 169.199219 167.039062 C 167.78125 167.855469 167.382812 168.488281 168.089844 168.804688 C 168.816406 169.132812 171.417969 168.707031 172.945312 168.007812 Z M 166.761719 162.28125 C 167.46875 159.90625 167.160156 156.527344 166.234375 156.527344 C 165.113281 156.527344 163.898438 163.070312 164.730469 164.617188 C 165.042969 165.203125 165.046875 165.203125 165.691406 164.457031 C 166.046875 164.046875 166.527344 163.066406 166.761719 162.28125 Z M 177.332031 162.339844 C 177.949219 162.078125 178.917969 161.457031 179.480469 160.964844 C 181.703125 159.019531 180.046875 158.609375 176.023438 160.109375 C 174.199219 160.792969 172.015625 162.28125 172.359375 162.613281 C 173.019531 163.242188 175.542969 163.105469 177.332031 162.339844 Z M 170.996094 157.382812 C 171.917969 155.003906 171.453125 150.382812 170.378906 151.269531 C 169.417969 152.066406 168.488281 157.257812 168.96875 159.160156 L 169.160156 159.914062 L 169.832031 159.285156 C 170.203125 158.9375 170.726562 158.082031 170.996094 157.382812 Z M 180.15625 156.675781 C 182.839844 155.433594 185.476562 152.378906 183.867188 152.378906 C 182.800781 152.378906 178.976562 154.5625 177.605469 155.957031 L 176.226562 157.355469 L 177.464844 157.355469 C 178.191406 157.351562 179.304688 157.070312 180.15625 156.675781 Z M 174.828125 152.308594 C 175.460938 150.78125 175.671875 146.957031 175.171875 146.019531 C 174.167969 144.136719 173.320312 145.554688 173.101562 149.472656 C 172.886719 153.273438 173.808594 154.777344 174.828125 152.308594 Z M 183.222656 150.84375 C 184.910156 150.144531 186.277344 149.066406 187.164062 147.730469 C 188.21875 146.144531 188.214844 145.90625 187.121094 146.125 C 185.007812 146.542969 180.507812 149.789062 180.507812 150.890625 C 180.507812 151.40625 181.917969 151.382812 183.222656 150.84375 Z M 178.207031 146.363281 C 178.886719 145.207031 178.976562 144.78125 178.960938 142.835938 C 178.945312 141.25 178.78125 140.273438 178.375 139.378906 L 177.816406 138.136719 L 177.328125 139.242188 C 176.710938 140.648438 176.390625 146.171875 176.875 147.074219 C 177.050781 147.40625 177.25 147.675781 177.3125 147.675781 C 177.378906 147.675781 177.78125 147.085938 178.207031 146.363281 Z M 187.542969 144.457031 C 189.089844 143.675781 190.257812 142.65625 191.082031 141.363281 C 191.523438 140.667969 191.882812 140 191.882812 139.878906 C 191.882812 139.449219 191.003906 139.664062 189.304688 140.503906 C 186.425781 141.929688 184.390625 143.757812 184.390625 144.917969 C 184.390625 145.355469 186.320312 145.070312 187.542969 144.457031 Z M 182.246094 139.691406 C 182.976562 138.050781 183.027344 135.007812 182.351562 133.449219 C 181.925781 132.46875 181.835938 132.402344 181.449219 132.789062 C 180.824219 133.414062 180.519531 135.039062 180.515625 137.808594 C 180.507812 140.246094 180.832031 141.492188 181.386719 141.148438 C 181.546875 141.050781 181.933594 140.394531 182.246094 139.691406 Z M 189.589844 137.660156 C 191.078125 137.175781 191.796875 136.726562 193.0625 135.503906 C 194.972656 133.65625 195.167969 132.863281 193.648438 133.109375 C 191.742188 133.417969 187.167969 136.765625 187.167969 137.855469 C 187.167969 138.402344 187.359375 138.386719 189.589844 137.660156 Z M 186.167969 132.476562 C 187.140625 130.820312 187.085938 125 186.101562 125 C 185.695312 125 184.980469 127.199219 184.644531 129.484375 C 184.089844 133.207031 184.859375 134.714844 186.167969 132.476562 Z M 192.578125 131.359375 C 194.191406 130.582031 195.792969 129.144531 196.550781 127.796875 C 197.121094 126.785156 197.140625 126.636719 196.742188 126.484375 C 196.160156 126.257812 194.320312 127.09375 192.667969 128.328125 C 191.382812 129.289062 189.664062 131.203125 189.664062 131.675781 C 189.664062 132.109375 191.414062 131.921875 192.578125 131.359375 Z M 193.863281 125.628906 C 195.351562 124.238281 196.046875 123.167969 196.046875 122.246094 C 196.046875 121.421875 195.382812 121.550781 194.351562 122.578125 C 192.601562 124.320312 191.292969 126.933594 192.171875 126.933594 C 192.332031 126.933594 193.09375 126.347656 193.863281 125.628906 Z M 190.007812 124.8125 C 190.941406 123.21875 190.992188 119.46875 190.078125 119.46875 C 189.507812 119.46875 189.160156 120.265625 188.789062 122.421875 C 188.261719 125.476562 188.894531 126.714844 190.007812 124.8125 Z M 193.441406 119.976562 C 194.15625 118.945312 194.242188 118.597656 194.242188 116.660156 C 194.242188 115.457031 194.117188 114.464844 193.964844 114.421875 C 193.8125 114.382812 193.390625 115.097656 193.027344 116.011719 C 192.320312 117.78125 191.886719 121.125 192.363281 121.125 C 192.515625 121.125 193 120.609375 193.441406 119.976562 Z M 193.441406 119.976562 "/>
<path style=" stroke:none;fill-rule:nonzero;fill:rgb(27.45098%,79.215686%,100%);fill-opacity:1;" d="M 134.585938 149.761719 C 133.058594 149.410156 130.1875 148.5 128.203125 147.742188 C 120.867188 144.9375 115.976562 143.539062 113.480469 143.53125 C 111.386719 143.527344 109.570312 144.160156 104.203125 146.765625 C 100.632812 148.5 99.054688 149.125 98.238281 149.132812 C 95.386719 149.15625 86.285156 145.285156 79.117188 140.996094 C 74.710938 138.359375 72.898438 136.855469 71.464844 134.648438 C 70.316406 132.878906 67.726562 127.246094 67.953125 127.019531 C 68.039062 126.933594 71.515625 127.992188 75.679688 129.363281 C 79.84375 130.738281 84.566406 132.179688 86.167969 132.570312 C 96.488281 135.089844 116.070312 135.972656 127.375 134.433594 C 140.71875 132.621094 151.992188 129.394531 161.777344 124.589844 C 168.671875 121.207031 172.574219 118.792969 177.703125 114.730469 L 181.476562 111.734375 L 181.5625 114.011719 C 181.675781 116.960938 181.164062 121.375 180.46875 123.476562 C 179.691406 125.816406 178.28125 127.839844 175.679688 130.34375 C 169.296875 136.496094 163.039062 140.613281 152.066406 145.894531 C 146.882812 148.390625 144.925781 149.125 141.382812 149.910156 C 138.4375 150.5625 138 150.550781 134.585938 149.761719 Z M 134.585938 149.761719 "/>
<path style=" stroke:none;fill-rule:nonzero;fill:rgb(100%,0%,0%);fill-opacity:1;" d="M 128.621094 201.90625 C 127.78125 201.632812 125.84375 200.816406 124.320312 200.097656 C 122.792969 199.378906 121.265625 198.679688 120.921875 198.546875 C 119.710938 198.074219 120.316406 198.789062 122.109375 199.953125 C 123.105469 200.601562 123.871094 201.179688 123.808594 201.242188 C 123.46875 201.578125 111.328125 195.859375 106.660156 193.164062 C 95.398438 186.660156 87.363281 180.632812 78.855469 172.300781 C 69.449219 163.089844 63.527344 155.457031 57.285156 144.484375 C 54.644531 139.839844 53.539062 138.652344 55.632812 142.703125 C 64.03125 158.960938 76.695312 173.996094 91.855469 185.703125 C 93.53125 187 96.996094 189.496094 99.554688 191.25 C 102.109375 193.007812 104.203125 194.628906 104.203125 194.851562 C 104.203125 195.855469 103.289062 195.5625 101.753906 194.070312 C 100.886719 193.230469 99.90625 192.40625 99.574219 192.234375 C 98.644531 191.761719 96.558594 191.867188 94.195312 192.503906 L 92.058594 193.078125 L 90.847656 192.464844 C 84.410156 189.207031 75.617188 183.800781 70.53125 179.976562 C 66.183594 176.703125 59.273438 169.824219 56.136719 165.640625 C 47.039062 153.503906 41.886719 140.839844 40.21875 126.519531 C 39.609375 121.28125 39.8125 110.472656 40.625 105.085938 C 41.3125 100.519531 41.738281 98.5 42.0625 98.300781 C 42.195312 98.21875 42.515625 98.871094 42.769531 99.75 C 43.589844 102.5625 46.128906 108.582031 48.210938 112.632812 C 52.195312 120.386719 57.273438 127.195312 63.742188 133.449219 C 71.273438 140.730469 80.105469 146.410156 90.328125 150.539062 C 98.015625 153.644531 98.257812 153.640625 104.664062 150.46875 C 107.171875 149.226562 109.863281 148.089844 110.636719 147.941406 C 113.472656 147.40625 118.546875 147.777344 116.230469 148.351562 C 115.207031 148.605469 108.402344 153.074219 103.722656 156.570312 C 99.722656 159.558594 99.386719 159.972656 97.675781 164.050781 C 97.121094 165.375 95.863281 167.742188 94.878906 169.304688 C 92.613281 172.921875 92.316406 173.910156 93.007812 175.601562 C 93.4375 176.648438 93.769531 176.980469 95.046875 177.632812 C 96.390625 178.320312 96.816406 178.402344 98.652344 178.324219 C 100.265625 178.253906 101.109375 178.054688 102.398438 177.425781 C 104.621094 176.347656 107.339844 173.578125 108.992188 170.714844 C 111.25 166.796875 113.320312 165.304688 116.550781 165.261719 C 118.792969 165.230469 119.898438 165.777344 137 175.410156 C 144.675781 179.734375 152.496094 184.113281 154.375 185.140625 C 156.253906 186.167969 158.128906 187.296875 158.539062 187.648438 L 159.28125 188.289062 L 158.734375 189.3125 C 158.058594 190.574219 155.808594 192.566406 154.148438 193.382812 C 153.269531 193.808594 152.402344 193.988281 151.234375 193.984375 C 149.285156 193.972656 148.316406 193.527344 141.660156 189.585938 C 134.378906 185.277344 132.644531 184.398438 133.210938 185.3125 C 133.3125 185.476562 136.679688 187.769531 140.691406 190.410156 C 144.707031 193.050781 148.066406 195.335938 148.160156 195.488281 C 148.359375 195.808594 147.015625 196.871094 145.347656 197.703125 C 144.484375 198.136719 143.664062 198.289062 142.199219 198.289062 C 139.9375 198.289062 138.546875 197.726562 131.976562 194.164062 C 127.992188 192.003906 126.957031 191.539062 126.957031 191.902344 C 126.957031 192.03125 129.464844 193.863281 132.53125 195.96875 L 138.109375 199.800781 L 137.1875 200.570312 C 135.042969 202.351562 131.613281 202.886719 128.621094 201.90625 Z M 80.964844 179.304688 C 82.09375 178.988281 81.261719 177.921875 79.164062 176.996094 C 78.269531 176.601562 77.179688 176.40625 75.648438 176.363281 C 73.0625 176.289062 72.421875 176.617188 73.285156 177.570312 C 74.804688 179.242188 78.339844 180.042969 80.964844 179.304688 Z M 85.167969 173.175781 C 85.140625 171.144531 84.445312 168.101562 83.777344 167.089844 C 83.183594 166.183594 82.671875 166.695312 82.277344 168.585938 C 81.792969 170.914062 82.394531 173.246094 83.894531 174.851562 C 84.871094 175.894531 85.203125 175.460938 85.167969 173.175781 Z M 75.917969 174.492188 C 76.765625 174.042969 76.554688 173.476562 75.25 172.71875 C 73.109375 171.464844 68.132812 171.152344 68.132812 172.269531 C 68.132812 172.683594 69.859375 173.902344 71.070312 174.34375 C 72.355469 174.8125 75.15625 174.898438 75.917969 174.492188 Z M 80.441406 170.285156 C 80.941406 168.4375 80.417969 165.199219 79.257812 162.9375 C 78.761719 161.972656 78.566406 161.800781 78.257812 162.058594 C 77.613281 162.589844 77.242188 165.054688 77.554688 166.699219 C 77.878906 168.414062 78.210938 169.113281 79.175781 170.148438 C 80.039062 171.070312 80.226562 171.089844 80.441406 170.285156 Z M 72.015625 169.527344 C 72.980469 168.917969 71 167.457031 67.894531 166.480469 C 65.78125 165.820312 63.414062 165.734375 63.414062 166.320312 C 63.414062 166.800781 65.6875 168.496094 67.332031 169.242188 C 68.628906 169.828125 71.289062 169.992188 72.015625 169.527344 Z M 75.617188 163.925781 C 75.609375 159.308594 73.683594 155.445312 72.863281 158.394531 C 72.199219 160.78125 72.621094 163.257812 73.972656 164.894531 C 75.292969 166.488281 75.625 166.296875 75.617188 163.925781 Z M 67.328125 163.542969 C 67.65625 163.152344 67.582031 162.992188 66.785156 162.328125 C 65.480469 161.242188 63.03125 160.363281 60.847656 160.191406 C 59.332031 160.074219 58.976562 160.125 58.976562 160.445312 C 58.976562 162.496094 66.023438 165.109375 67.328125 163.542969 Z M 71.28125 158.242188 C 71.238281 155.992188 70.507812 153.519531 69.523438 152.320312 C 68.757812 151.386719 68.398438 151.949219 68.21875 154.347656 C 68.027344 156.941406 68.4375 158.464844 69.714844 159.875 C 71.023438 161.316406 71.328125 161 71.28125 158.242188 Z M 63.136719 158.042969 C 63.136719 157.230469 60.945312 155.230469 59.195312 154.449219 C 57.0625 153.496094 55.089844 153.207031 55.089844 153.851562 C 55.089844 154.554688 57.839844 157.09375 59.371094 157.804688 C 61.015625 158.566406 63.136719 158.699219 63.136719 158.042969 Z M 66.902344 152.730469 C 67.007812 151.894531 67.027344 150.496094 66.949219 149.621094 C 66.800781 147.988281 65.867188 145.464844 65.410156 145.464844 C 64.910156 145.464844 64.246094 147.855469 64.246094 149.65625 C 64.246094 151.539062 64.683594 153.179688 65.527344 154.460938 C 65.976562 155.144531 66.042969 155.164062 66.363281 154.726562 C 66.554688 154.464844 66.796875 153.566406 66.902344 152.730469 Z M 59.449219 151.910156 C 59.953125 150.605469 52.699219 146.078125 51.699219 147.074219 C 51.136719 147.636719 53.566406 150.585938 55.414062 151.574219 C 56.972656 152.410156 59.1875 152.59375 59.449219 151.910156 Z M 63.082031 147.101562 C 63.753906 144.894531 62.980469 140.25 61.867188 139.824219 C 60.292969 139.222656 60 145.886719 61.515625 147.808594 C 62.265625 148.757812 62.628906 148.59375 63.082031 147.101562 Z M 55.367188 145.757812 C 55.367188 145.042969 52.84375 142.589844 51.375 141.882812 C 50.035156 141.238281 47.597656 140.820312 47.597656 141.238281 C 47.597656 141.710938 49.191406 143.722656 50.195312 144.523438 C 52.191406 146.109375 55.367188 146.867188 55.367188 145.757812 Z M 59.011719 141.6875 C 59.644531 140.925781 59.527344 136.1875 58.835938 134.832031 C 58.058594 133.300781 57.675781 133.304688 56.976562 134.859375 C 56.121094 136.761719 56.171875 138.609375 57.132812 140.570312 C 57.9375 142.207031 58.367188 142.464844 59.011719 141.6875 Z M 52.59375 138.996094 C 52.59375 138.207031 50.058594 135.800781 48.335938 134.957031 C 46.390625 134 44.546875 133.585938 44.546875 134.101562 C 44.546875 135.421875 47.40625 138.222656 49.449219 138.898438 C 51.160156 139.46875 52.59375 139.511719 52.59375 138.996094 Z M 55.261719 133.917969 C 55.726562 131.472656 54.289062 126.226562 53.214844 126.433594 C 52.617188 126.550781 52.378906 127.46875 52.34375 129.777344 C 52.3125 131.792969 52.777344 133.28125 53.765625 134.328125 C 54.609375 135.222656 55.035156 135.105469 55.261719 133.917969 Z M 49.5 133.050781 C 50.113281 132.660156 49.628906 131.773438 48 130.289062 C 45.476562 127.988281 42.042969 126.722656 42.277344 128.179688 C 42.507812 129.609375 45.179688 132.015625 47.378906 132.769531 C 49.097656 133.363281 49.019531 133.351562 49.5 133.050781 Z M 47.597656 127.335938 C 47.597656 126.023438 44.640625 122.507812 43.539062 122.507812 C 42.648438 122.507812 42.695312 123.140625 43.714844 124.917969 C 44.890625 126.960938 47.597656 128.648438 47.597656 127.335938 Z M 50.875 124.789062 C 50.753906 122.417969 50.160156 120.574219 49.519531 120.574219 C 49.121094 120.574219 48.429688 122.324219 48.429688 123.339844 C 48.429688 124.929688 49.703125 127.210938 50.589844 127.210938 C 50.925781 127.210938 50.976562 126.789062 50.875 124.789062 Z M 47.445312 121.730469 C 47.835938 120.496094 46.355469 115.871094 45.566406 115.871094 C 44.78125 115.871094 44.585938 118.316406 45.226562 120.109375 C 45.886719 121.953125 47.09375 122.835938 47.445312 121.730469 Z M 47.445312 121.730469 "/>
<path style=" stroke:none;fill-rule:nonzero;fill:rgb(0%,10.980392%,27.058824%);fill-opacity:1;" d="M 80.304688 195.0625 C 79.835938 194.5 79.839844 191.976562 80.3125 190.3125 C 80.628906 189.199219 80.707031 189.125 81.390625 189.292969 C 82.339844 189.53125 85.46875 191.273438 86.410156 192.089844 C 87.058594 192.652344 87.09375 192.769531 86.722656 193.140625 C 85.933594 193.933594 82.519531 195.523438 81.601562 195.523438 C 81.085938 195.523438 80.519531 195.320312 80.304688 195.0625 Z M 80.304688 195.0625 "/>
<path style=" stroke:none;fill-rule:nonzero;fill:rgb(0%,10.980392%,27.058824%);fill-opacity:1;" d="M 94.558594 201.609375 C 91.925781 200.011719 91.875 195.828125 94.46875 194.3125 C 95.722656 193.578125 98.570312 193.570312 99.550781 194.296875 C 101.371094 195.648438 101.65625 197.710938 100.300781 199.75 C 98.761719 202.0625 96.507812 202.792969 94.558594 201.609375 Z M 94.558594 201.609375 "/>
<path style=" stroke:none;fill-rule:nonzero;fill:rgb(0%,10.980392%,27.058824%);fill-opacity:1;" d="M 103.144531 204.367188 C 101.859375 203.585938 101.273438 202.105469 101.695312 200.703125 C 102.117188 199.296875 103.707031 197.578125 105.355469 196.746094 C 107.601562 195.609375 108.84375 195.898438 109.578125 197.734375 C 110.550781 200.152344 109.800781 203.230469 107.964844 204.363281 C 106.726562 205.125 104.398438 205.125 103.144531 204.367188 Z M 103.144531 204.367188 "/>
<path style=" stroke:none;fill-rule:nonzero;fill:rgb(0%,10.980392%,27.058824%);fill-opacity:1;" d="M 110.769531 206.273438 C 110.164062 205.921875 110.226562 205.566406 111.457031 202.089844 C 112.390625 199.46875 112.636719 199.285156 114.164062 200.070312 C 116.476562 201.261719 117.371094 203.71875 115.992188 205.09375 C 114.664062 206.414062 112.039062 207.007812 110.769531 206.273438 Z M 110.769531 206.273438 "/>
<path style=" stroke:none;fill-rule:nonzero;fill:rgb(0%,10.980392%,27.058824%);fill-opacity:1;" d="M 119.933594 203.859375 C 119.085938 203.300781 118.214844 202.207031 118.4375 201.984375 C 118.628906 201.792969 122.792969 203.539062 122.792969 203.8125 C 122.792969 204.042969 121.832031 204.363281 121.128906 204.367188 C 120.898438 204.367188 120.363281 204.140625 119.933594 203.859375 Z M 119.933594 203.859375 "/>
<path style=" stroke:none;fill-rule:nonzero;fill:rgb(100%,100%,100%);fill-opacity:1;" d="M 46.308594 121.503906 C 45.515625 120.679688 45.234375 119.914062 45.140625 118.304688 C 45.0625 116.96875 45.246094 116.039062 45.59375 116.039062 C 45.84375 116.039062 46.683594 117.796875 46.972656 118.929688 C 47.316406 120.257812 47.390625 121.578125 47.144531 121.902344 C 46.953125 122.15625 46.917969 122.136719 46.308594 121.503906 Z M 46.308594 121.503906 "/>
<path style=" stroke:none;fill-rule:nonzero;fill:rgb(100%,100%,100%);fill-opacity:1;" d="M 49.992188 126.789062 C 49.59375 126.363281 49.058594 125.261719 48.777344 124.289062 C 48.585938 123.625 48.570312 123.335938 48.691406 122.648438 C 48.851562 121.742188 49.234375 120.855469 49.5 120.773438 C 49.761719 120.691406 50.371094 122.042969 50.589844 123.183594 C 50.792969 124.230469 50.859375 126.476562 50.707031 126.882812 C 50.585938 127.1875 50.332031 127.152344 49.992188 126.789062 Z M 49.992188 126.789062 "/>
<path style=" stroke:none;fill-rule:nonzero;fill:rgb(100%,100%,100%);fill-opacity:1;" d="M 46.28125 127.28125 C 45.5 126.867188 44.820312 126.242188 44.195312 125.375 C 43.324219 124.160156 42.902344 122.847656 43.300781 122.601562 C 43.527344 122.464844 44.566406 123.140625 45.25 123.875 C 46.253906 124.941406 47.460938 126.816406 47.460938 127.300781 C 47.460938 127.585938 46.828125 127.574219 46.28125 127.28125 Z M 46.28125 127.28125 "/>
<path style=" stroke:none;fill-rule:nonzero;fill:rgb(100%,100%,100%);fill-opacity:1;" d="M 48.03125 132.828125 C 46.519531 132.421875 45.515625 131.820312 44.257812 130.566406 C 42.996094 129.308594 42.242188 128.210938 42.382812 127.839844 C 42.453125 127.664062 42.585938 127.636719 43.035156 127.707031 C 43.828125 127.835938 45.179688 128.40625 46.054688 128.984375 C 46.976562 129.59375 49.023438 131.539062 49.425781 132.1875 C 49.71875 132.65625 49.71875 132.675781 49.46875 132.859375 C 49.152344 133.085938 48.984375 133.082031 48.03125 132.828125 Z M 48.03125 132.828125 "/>
<path style=" stroke:none;fill-rule:nonzero;fill:rgb(100%,100%,100%);fill-opacity:1;" d="M 53.859375 134.070312 C 53.171875 133.292969 52.78125 132.507812 52.59375 131.535156 C 52.296875 129.964844 52.519531 127.390625 53.011719 126.789062 C 53.25 126.492188 53.269531 126.488281 53.53125 126.726562 C 53.996094 127.144531 54.652344 128.769531 54.875 130.058594 C 55.089844 131.277344 55.164062 133.800781 55.003906 134.394531 C 54.871094 134.878906 54.472656 134.765625 53.859375 134.070312 Z M 53.859375 134.070312 "/>
<path style=" stroke:none;fill-rule:nonzero;fill:rgb(100%,100%,100%);fill-opacity:1;" d="M 50.652344 139.050781 C 48.636719 138.519531 47.304688 137.753906 46.140625 136.453125 C 45.324219 135.542969 44.554688 134.238281 44.730469 134.0625 C 44.988281 133.804688 47.742188 134.753906 49.070312 135.554688 C 50.46875 136.398438 52.6875 138.851562 52.355469 139.183594 C 52.214844 139.324219 51.46875 139.265625 50.652344 139.050781 Z M 50.652344 139.050781 "/>
<path style=" stroke:none;fill-rule:nonzero;fill:rgb(100%,100%,100%);fill-opacity:1;" d="M 58.023438 141.710938 C 57.617188 141.28125 56.765625 139.382812 56.578125 138.496094 C 56.367188 137.488281 56.617188 136.027344 57.207031 134.84375 C 57.761719 133.738281 58.023438 133.652344 58.429688 134.449219 C 59.472656 136.484375 59.691406 139.742188 58.898438 141.40625 C 58.613281 142.007812 58.378906 142.089844 58.023438 141.710938 Z M 58.023438 141.710938 "/>
<path style=" stroke:none;fill-rule:nonzero;fill:rgb(100%,100%,100%);fill-opacity:1;" d="M 53.457031 145.902344 C 51.324219 145.347656 49.617188 144.121094 48.433594 142.300781 L 47.855469 141.414062 L 48.429688 141.371094 C 49.175781 141.3125 50.273438 141.546875 51.136719 141.945312 C 52.558594 142.605469 55.226562 145.109375 55.226562 145.789062 C 55.230469 146.011719 54.949219 146.191406 54.628906 146.175781 C 54.539062 146.171875 54.011719 146.050781 53.457031 145.902344 Z M 53.457031 145.902344 "/>
<path style=" stroke:none;fill-rule:nonzero;fill:rgb(100%,100%,100%);fill-opacity:1;" d="M 61.847656 148.011719 C 60.777344 146.832031 60.277344 142.445312 61.019531 140.773438 C 61.175781 140.421875 61.371094 140.09375 61.453125 140.042969 C 61.917969 139.753906 62.53125 140.785156 62.941406 142.542969 C 63.101562 143.234375 63.144531 143.929688 63.097656 145.144531 C 63.03125 146.863281 62.863281 147.679688 62.496094 148.046875 C 62.222656 148.316406 62.121094 148.3125 61.847656 148.011719 Z M 61.847656 148.011719 "/>
<path style=" stroke:none;fill-rule:nonzero;fill:rgb(100%,100%,100%);fill-opacity:1;" d="M 56.734375 151.875 C 55.628906 151.585938 54.9375 151.132812 53.621094 149.847656 C 52.578125 148.828125 51.761719 147.691406 51.761719 147.25 C 51.761719 147.03125 51.828125 147.003906 52.210938 147.085938 C 53.089844 147.269531 55.449219 148.261719 56.183594 148.753906 C 57.207031 149.445312 59.441406 151.632812 59.363281 151.871094 C 59.269531 152.15625 57.816406 152.160156 56.734375 151.875 Z M 56.734375 151.875 "/>
<path style=" stroke:none;fill-rule:nonzero;fill:rgb(100%,100%,100%);fill-opacity:1;" d="M 60.792969 158.132812 C 59.152344 157.691406 57.964844 156.925781 56.398438 155.292969 C 54.601562 153.417969 54.917969 153.148438 57.816406 154.082031 C 59.863281 154.746094 61.902344 156.167969 62.671875 157.472656 C 62.976562 157.992188 63.007812 158.125 62.847656 158.226562 C 62.5625 158.402344 61.652344 158.363281 60.792969 158.132812 Z M 60.792969 158.132812 "/>
<path style=" stroke:none;fill-rule:nonzero;fill:rgb(100%,100%,100%);fill-opacity:1;" d="M 65.640625 154.1875 C 64.828125 153.074219 64.359375 151.40625 64.363281 149.640625 C 64.367188 148.214844 64.542969 147.378906 65.0625 146.355469 L 65.457031 145.582031 L 65.8125 146.195312 C 66.46875 147.3125 66.753906 148.675781 66.757812 150.695312 C 66.761719 152.835938 66.488281 154.757812 66.179688 154.757812 C 66.109375 154.757812 65.867188 154.5 65.640625 154.1875 Z M 65.640625 154.1875 "/>
<path style=" stroke:none;fill-rule:nonzero;fill:rgb(100%,100%,100%);fill-opacity:1;" d="M 63.839844 163.609375 C 61.738281 163.042969 59.253906 161.433594 59.253906 160.636719 C 59.253906 160.210938 59.605469 160.136719 60.902344 160.289062 C 62.335938 160.460938 63.660156 160.863281 65.148438 161.578125 C 67.074219 162.507812 67.742188 163.222656 67.035156 163.601562 C 66.484375 163.894531 64.917969 163.898438 63.839844 163.609375 Z M 63.839844 163.609375 "/>
<path style=" stroke:none;fill-rule:nonzero;fill:rgb(100%,100%,100%);fill-opacity:1;" d="M 69.914062 159.90625 C 68.757812 158.671875 68.179688 156.839844 68.320312 154.824219 C 68.398438 153.632812 68.617188 152.460938 68.820312 152.136719 C 69.019531 151.816406 69.457031 152.304688 70.015625 153.453125 C 70.941406 155.378906 71.371094 157.945312 71.046875 159.648438 C 70.945312 160.199219 70.804688 160.566406 70.703125 160.566406 C 70.605469 160.566406 70.25 160.269531 69.914062 159.90625 Z M 69.914062 159.90625 "/>
<path style=" stroke:none;fill-rule:nonzero;fill:rgb(100%,100%,100%);fill-opacity:1;" d="M 68.605469 169.484375 C 68.136719 169.386719 67.453125 169.148438 67.078125 168.957031 C 65.796875 168.304688 63.554688 166.570312 63.554688 166.234375 C 63.554688 165.839844 66.046875 166.082031 67.925781 166.660156 C 69.929688 167.277344 72.015625 168.542969 72.015625 169.140625 C 72.015625 169.667969 70.261719 169.847656 68.605469 169.484375 Z M 68.605469 169.484375 "/>
<path style=" stroke:none;fill-rule:nonzero;fill:rgb(100%,100%,100%);fill-opacity:1;" d="M 74.585938 165.308594 C 73.308594 164.074219 72.824219 162.796875 72.828125 160.664062 C 72.828125 159.113281 72.976562 158.257812 73.332031 157.714844 C 73.558594 157.371094 73.570312 157.367188 73.84375 157.613281 C 74.324219 158.042969 74.8125 159.179688 75.082031 160.488281 C 75.519531 162.59375 75.605469 165.820312 75.222656 165.820312 C 75.160156 165.820312 74.875 165.589844 74.585938 165.308594 Z M 74.585938 165.308594 "/>
<path style=" stroke:none;fill-rule:nonzero;fill:rgb(100%,100%,100%);fill-opacity:1;" d="M 79.546875 170.304688 C 78.988281 169.867188 78.34375 168.816406 77.960938 167.722656 C 77.507812 166.417969 77.519531 164.125 77.988281 162.988281 C 78.175781 162.53125 78.390625 162.160156 78.46875 162.164062 C 78.851562 162.183594 79.726562 164.105469 80.128906 165.820312 C 80.445312 167.175781 80.539062 168.8125 80.347656 169.722656 C 80.257812 170.160156 80.136719 170.542969 80.082031 170.578125 C 80.027344 170.613281 79.785156 170.488281 79.546875 170.304688 Z M 79.546875 170.304688 "/>
<path style=" stroke:none;fill-rule:nonzero;fill:rgb(100%,100%,100%);fill-opacity:1;" d="M 72.777344 174.582031 C 71.21875 174.34375 68.675781 173.074219 68.472656 172.4375 C 68.324219 171.976562 68.628906 171.835938 69.910156 171.789062 C 72.070312 171.703125 74.46875 172.292969 75.660156 173.199219 C 76.433594 173.789062 76.476562 174.0625 75.835938 174.332031 C 75.316406 174.546875 73.515625 174.695312 72.777344 174.582031 Z M 72.777344 174.582031 "/>
<path style=" stroke:none;fill-rule:nonzero;fill:rgb(100%,100%,100%);fill-opacity:1;" d="M 76.683594 179.15625 C 75.128906 178.773438 73.046875 177.453125 73.152344 176.921875 C 73.179688 176.773438 73.40625 176.640625 73.75 176.566406 C 74.496094 176.402344 77.160156 176.550781 78.179688 176.816406 C 79.195312 177.078125 80.460938 177.742188 80.976562 178.277344 L 81.367188 178.683594 L 81.058594 178.992188 C 80.777344 179.273438 80.601562 179.304688 79.121094 179.332031 C 78.070312 179.347656 77.210938 179.289062 76.683594 179.15625 Z M 76.683594 179.15625 "/>
<path style=" stroke:none;fill-rule:nonzero;fill:rgb(100%,100%,100%);fill-opacity:1;" d="M 84.132812 174.902344 C 82.699219 173.613281 81.941406 170.667969 82.46875 168.445312 C 82.675781 167.578125 82.976562 166.898438 83.191406 166.828125 C 83.578125 166.703125 84.363281 168.738281 84.796875 170.992188 C 85.101562 172.582031 85.113281 174.625 84.816406 175.148438 C 84.691406 175.371094 84.628906 175.351562 84.132812 174.902344 Z M 84.132812 174.902344 "/>
<path style=" stroke:none;fill-rule:nonzero;fill:rgb(100%,100%,100%);fill-opacity:1;" d="M 192.332031 119.769531 C 192.410156 118.425781 192.808594 116.910156 193.5 115.355469 C 194.003906 114.214844 194.140625 114.554688 194.078125 116.820312 C 194.019531 118.96875 193.980469 119.085938 192.914062 120.324219 L 192.257812 121.085938 Z M 192.332031 119.769531 "/>
<path style=" stroke:none;fill-rule:nonzero;fill:rgb(100%,100%,100%);fill-opacity:1;" d="M 188.914062 125.359375 C 188.621094 124.597656 189.0625 121.070312 189.578125 120.078125 C 189.902344 119.457031 190.039062 119.429688 190.3125 119.941406 C 190.632812 120.535156 190.628906 122.410156 190.304688 123.644531 C 189.933594 125.0625 189.164062 126.011719 188.914062 125.359375 Z M 188.914062 125.359375 "/>
<path style=" stroke:none;fill-rule:nonzero;fill:rgb(100%,100%,100%);fill-opacity:1;" d="M 192.023438 126.453125 C 192.023438 125.820312 194.078125 122.894531 194.980469 122.242188 C 195.664062 121.75 195.90625 121.738281 195.90625 122.199219 C 195.90625 123.160156 194.578125 124.992188 193.085938 126.085938 C 192.191406 126.742188 192.023438 126.800781 192.023438 126.453125 Z M 192.023438 126.453125 "/>
<path style=" stroke:none;fill-rule:nonzero;fill:rgb(100%,100%,100%);fill-opacity:1;" d="M 189.800781 131.675781 C 189.800781 131.394531 191.359375 129.605469 192.179688 128.949219 C 194.375 127.191406 196.878906 126.015625 196.878906 126.742188 C 196.878906 127.09375 195.5 129 194.78125 129.644531 C 193.898438 130.4375 192.65625 131.191406 191.675781 131.535156 C 190.890625 131.8125 189.800781 131.894531 189.800781 131.675781 Z M 189.800781 131.675781 "/>
<path style=" stroke:none;fill-rule:nonzero;fill:rgb(100%,100%,100%);fill-opacity:1;" d="M 184.796875 132.949219 C 184.585938 132.308594 184.703125 129.667969 185.007812 128.246094 C 185.261719 127.042969 185.933594 125.246094 186.121094 125.265625 C 186.414062 125.300781 186.644531 126.417969 186.714844 128.140625 C 186.773438 129.695312 186.742188 130.089844 186.488281 131.023438 C 186.15625 132.226562 185.898438 132.789062 185.496094 133.191406 C 185.113281 133.574219 184.992188 133.53125 184.796875 132.949219 Z M 184.796875 132.949219 "/>
<path style=" stroke:none;fill-rule:nonzero;fill:rgb(100%,100%,100%);fill-opacity:1;" d="M 187.304688 137.808594 C 187.304688 137.441406 189.179688 135.734375 190.597656 134.808594 C 192.148438 133.792969 193.457031 133.183594 194.085938 133.183594 C 194.625 133.183594 194.632812 133.363281 194.128906 134.160156 C 193.160156 135.683594 190.789062 137.25 188.601562 137.808594 C 187.535156 138.078125 187.304688 138.078125 187.304688 137.808594 Z M 187.304688 137.808594 "/>
<path style=" stroke:none;fill-rule:nonzero;fill:rgb(100%,100%,100%);fill-opacity:1;" d="M 180.886719 140.6875 C 180.605469 140.058594 180.660156 135.566406 180.964844 134.277344 C 181.402344 132.410156 181.765625 132.335938 182.335938 133.988281 C 182.746094 135.175781 182.777344 137.480469 182.40625 138.851562 C 182.164062 139.734375 181.429688 141.066406 181.183594 141.066406 C 181.113281 141.066406 180.980469 140.894531 180.886719 140.6875 Z M 180.886719 140.6875 "/>
<path style=" stroke:none;fill-rule:nonzero;fill:rgb(100%,100%,100%);fill-opacity:1;" d="M 184.609375 144.628906 C 184.867188 143.789062 185.886719 142.769531 187.511719 141.726562 C 189.039062 140.746094 191.359375 139.671875 191.546875 139.855469 C 191.703125 140.011719 190.765625 141.605469 190.082031 142.351562 C 189.695312 142.773438 189.03125 143.347656 188.613281 143.625 C 187.660156 144.257812 185.820312 144.9375 185.070312 144.9375 C 184.554688 144.9375 184.519531 144.914062 184.609375 144.628906 Z M 184.609375 144.628906 "/>
<path style=" stroke:none;fill-rule:nonzero;fill:rgb(100%,100%,100%);fill-opacity:1;" d="M 176.96875 146.683594 C 176.761719 145.921875 176.734375 145.429688 176.800781 143.660156 C 176.878906 141.570312 177.128906 140.175781 177.640625 138.992188 L 177.851562 138.507812 L 178.15625 139.1875 C 178.609375 140.203125 178.882812 142.03125 178.800781 143.488281 C 178.722656 144.921875 178.519531 145.554688 177.761719 146.742188 L 177.214844 147.597656 Z M 176.96875 146.683594 "/>
<path style=" stroke:none;fill-rule:nonzero;fill:rgb(100%,100%,100%);fill-opacity:1;" d="M 180.714844 151.023438 C 180.609375 150.851562 180.691406 150.710938 181.386719 149.882812 C 182.359375 148.722656 184.648438 147.226562 186.511719 146.535156 C 187.886719 146.019531 187.953125 146.046875 187.488281 146.90625 C 186.964844 147.875 185.507812 149.394531 184.546875 149.976562 C 183.175781 150.808594 180.957031 151.414062 180.714844 151.023438 Z M 180.714844 151.023438 "/>
<path style=" stroke:none;fill-rule:nonzero;fill:rgb(100%,100%,100%);fill-opacity:1;" d="M 173.589844 153.054688 C 172.855469 152.171875 173.191406 146.855469 174.066406 145.523438 C 174.273438 145.207031 174.300781 145.203125 174.546875 145.429688 C 175.09375 145.921875 175.304688 146.832031 175.28125 148.601562 C 175.242188 151.523438 174.324219 153.933594 173.589844 153.054688 Z M 173.589844 153.054688 "/>
<path style=" stroke:none;fill-rule:nonzero;fill:rgb(100%,100%,100%);fill-opacity:1;" d="M 177.523438 156.28125 C 179.1875 154.574219 182.101562 152.851562 183.566406 152.714844 C 184.539062 152.621094 184.476562 152.894531 183.246094 154.160156 C 181.460938 155.996094 179.476562 157.054688 177.527344 157.203125 L 176.554688 157.277344 Z M 177.523438 156.28125 "/>
<path style=" stroke:none;fill-rule:nonzero;fill:rgb(100%,100%,100%);fill-opacity:1;" d="M 169.171875 159.238281 C 169.113281 159.015625 169.066406 158.058594 169.066406 157.109375 C 169.074219 155.679688 169.140625 155.125 169.457031 153.933594 C 169.832031 152.496094 170.304688 151.4375 170.605469 151.339844 C 170.917969 151.238281 171.257812 152.441406 171.320312 153.871094 C 171.414062 156.082031 170.886719 157.800781 169.695312 159.167969 L 169.285156 159.636719 Z M 169.171875 159.238281 "/>
<path style=" stroke:none;fill-rule:nonzero;fill:rgb(100%,100%,100%);fill-opacity:1;" d="M 173.304688 162.769531 C 172.378906 162.582031 172.347656 162.449219 173.105469 161.894531 C 174.671875 160.746094 177.648438 159.550781 179.378906 159.371094 C 180.535156 159.25 180.644531 159.511719 179.796875 160.378906 C 178.78125 161.417969 177.320312 162.308594 176.25 162.542969 C 174.894531 162.84375 174.007812 162.910156 173.304688 162.769531 Z M 173.304688 162.769531 "/>
<path style=" stroke:none;fill-rule:nonzero;fill:rgb(100%,100%,100%);fill-opacity:1;" d="M 164.820312 164.484375 C 164.496094 163.882812 164.59375 161.476562 165.011719 159.648438 C 165.359375 158.128906 165.949219 156.691406 166.226562 156.691406 C 166.308594 156.691406 166.507812 156.988281 166.675781 157.347656 C 166.9375 157.910156 166.980469 158.238281 166.972656 159.597656 C 166.964844 160.953125 166.90625 161.351562 166.582031 162.292969 C 166.21875 163.355469 165.367188 164.851562 165.128906 164.851562 C 165.066406 164.851562 164.925781 164.6875 164.820312 164.484375 Z M 164.820312 164.484375 "/>
<path style=" stroke:none;fill-rule:nonzero;fill:rgb(100%,100%,100%);fill-opacity:1;" d="M 168.449219 168.683594 C 168.1875 168.59375 167.949219 168.441406 167.917969 168.355469 C 167.8125 168.023438 169.609375 166.867188 171.238281 166.21875 C 171.914062 165.949219 175.519531 165.226562 175.628906 165.339844 C 175.789062 165.496094 175.277344 166.425781 174.84375 166.765625 C 173.175781 168.074219 169.679688 169.125 168.449219 168.683594 Z M 168.449219 168.683594 "/>
<path style=" stroke:none;fill-rule:nonzero;fill:rgb(100%,100%,100%);fill-opacity:1;" d="M 159.917969 169.335938 C 159.734375 168.855469 159.847656 166.5625 160.121094 165.222656 C 160.375 163.976562 160.980469 162.25 161.363281 161.671875 C 161.484375 161.488281 161.515625 161.488281 161.636719 161.671875 C 161.898438 162.058594 162.058594 162.84375 162.140625 164.089844 C 162.234375 165.523438 161.992188 166.917969 161.445312 168.109375 C 160.90625 169.28125 160.136719 169.898438 159.917969 169.335938 Z M 159.917969 169.335938 "/>
<path style=" stroke:none;fill-rule:nonzero;fill:rgb(100%,100%,100%);fill-opacity:1;" d="M 163.871094 173.441406 C 163.003906 173.199219 163.671875 172.65625 165.9375 171.75 C 167.363281 171.183594 167.441406 171.167969 169.546875 171.078125 C 170.730469 171.027344 171.726562 171.007812 171.757812 171.03125 C 171.792969 171.058594 171.546875 171.355469 171.21875 171.691406 C 170.46875 172.449219 169.308594 173.078125 168.148438 173.351562 C 167.242188 173.5625 164.515625 173.621094 163.871094 173.441406 Z M 163.871094 173.441406 "/>
<path style=" stroke:none;fill-rule:nonzero;fill:rgb(100%,100%,100%);fill-opacity:1;" d="M 155.289062 174.425781 C 155.234375 174.292969 155.195312 173.375 155.207031 172.386719 C 155.21875 170.929688 155.292969 170.328125 155.585938 169.207031 C 155.992188 167.679688 156.570312 166.371094 156.839844 166.371094 C 157.21875 166.371094 157.675781 168.832031 157.585938 170.375 C 157.535156 171.253906 157.433594 171.621094 156.996094 172.507812 C 156.40625 173.695312 155.746094 174.667969 155.53125 174.667969 C 155.453125 174.667969 155.34375 174.5625 155.289062 174.425781 Z M 155.289062 174.425781 "/>
<path style=" stroke:none;fill-rule:nonzero;fill:rgb(100%,100%,100%);fill-opacity:1;" d="M 159.460938 178.25 C 158.859375 178.078125 158.777344 177.890625 159.140625 177.503906 C 159.902344 176.695312 162.789062 175.898438 165.066406 175.867188 C 166.652344 175.84375 167 175.941406 166.835938 176.363281 C 166.648438 176.847656 164.742188 177.78125 163.101562 178.195312 C 162.199219 178.421875 160.164062 178.453125 159.460938 178.25 Z M 159.460938 178.25 "/>
<path style=" stroke:none;fill-rule:nonzero;fill:rgb(100%,0%,0%);fill-opacity:1;" d="M 51.179688 224.257812 L 51.179688 210.816406 L 54.945312 210.816406 C 56.371094 210.816406 57.300781 210.882812 57.734375 211.019531 C 58.402344 211.222656 58.957031 211.660156 59.40625 212.339844 C 59.855469 213.011719 60.082031 213.882812 60.082031 214.953125 C 60.082031 215.777344 59.953125 216.472656 59.691406 217.035156 C 59.433594 217.597656 59.105469 218.039062 58.703125 218.363281 C 58.304688 218.679688 57.902344 218.890625 57.488281 218.996094 C 56.929688 219.125 56.117188 219.1875 55.054688 219.1875 L 53.527344 219.1875 L 53.527344 224.257812 Z M 53.527344 213.089844 L 53.527344 216.90625 L 54.808594 216.90625 C 55.734375 216.90625 56.351562 216.835938 56.664062 216.695312 C 56.976562 216.554688 57.21875 216.335938 57.394531 216.035156 C 57.574219 215.734375 57.664062 215.386719 57.664062 214.988281 C 57.664062 214.5 57.539062 214.097656 57.292969 213.777344 C 57.042969 213.460938 56.730469 213.261719 56.347656 213.183594 C 56.066406 213.121094 55.503906 213.089844 54.660156 213.089844 Z M 53.527344 213.089844 "/>
<path style=" stroke:none;fill-rule:nonzero;fill:rgb(100%,0%,0%);fill-opacity:1;" d="M 71.902344 224.257812 L 69.347656 224.257812 L 68.332031 221.207031 L 63.6875 221.207031 L 62.730469 224.257812 L 60.242188 224.257812 L 64.765625 210.816406 L 67.246094 210.816406 Z M 67.582031 218.941406 L 65.980469 213.953125 L 64.410156 218.941406 Z M 67.582031 218.941406 "/>
<path style=" stroke:none;fill-rule:nonzero;fill:rgb(100%,0%,0%);fill-opacity:1;" d="M 73.761719 224.257812 L 73.761719 210.816406 L 78.703125 210.816406 C 79.945312 210.816406 80.84375 210.941406 81.40625 211.183594 C 81.96875 211.421875 82.421875 211.851562 82.761719 212.46875 C 83.097656 213.085938 83.265625 213.792969 83.265625 214.585938 C 83.265625 215.59375 83.011719 216.429688 82.5 217.089844 C 81.984375 217.742188 81.21875 218.15625 80.199219 218.328125 C 80.707031 218.667969 81.125 219.046875 81.453125 219.453125 C 81.785156 219.863281 82.230469 220.589844 82.792969 221.636719 L 84.210938 224.257812 L 81.40625 224.257812 L 79.707031 221.335938 C 79.105469 220.289062 78.695312 219.632812 78.472656 219.363281 C 78.25 219.085938 78.015625 218.902344 77.765625 218.804688 C 77.519531 218.699219 77.125 218.648438 76.585938 218.648438 L 76.109375 218.648438 L 76.109375 224.257812 Z M 76.109375 216.503906 L 77.847656 216.503906 C 78.972656 216.503906 79.675781 216.445312 79.953125 216.335938 C 80.234375 216.226562 80.453125 216.039062 80.613281 215.769531 C 80.769531 215.5 80.851562 215.164062 80.851562 214.761719 C 80.851562 214.308594 80.746094 213.945312 80.53125 213.667969 C 80.328125 213.386719 80.035156 213.210938 79.652344 213.136719 C 79.460938 213.105469 78.890625 213.089844 77.941406 213.089844 L 76.109375 213.089844 Z M 76.109375 216.503906 "/>
<path style=" stroke:none;fill-rule:nonzero;fill:rgb(100%,0%,0%);fill-opacity:1;" d="M 88.707031 224.257812 L 88.707031 213.089844 L 85.257812 213.089844 L 85.257812 210.816406 L 94.492188 210.816406 L 94.492188 213.089844 L 91.050781 213.089844 L 91.050781 224.257812 Z M 88.707031 224.257812 "/>
<path style=" stroke:none;fill-rule:nonzero;fill:rgb(100%,0%,0%);fill-opacity:1;" d="M 96.546875 224.257812 L 96.546875 210.816406 L 98.890625 210.816406 L 98.890625 224.257812 Z M 96.546875 224.257812 "/>
<path style=" stroke:none;fill-rule:nonzero;fill:rgb(100%,0%,0%);fill-opacity:1;" d="M 108.476562 224.257812 L 105.699219 210.816406 L 108.101562 210.816406 L 109.855469 220.050781 L 111.980469 210.816406 L 114.769531 210.816406 L 116.804688 220.207031 L 118.589844 210.816406 L 120.953125 210.816406 L 118.128906 224.257812 L 115.640625 224.257812 L 113.328125 214.210938 L 111.019531 224.257812 Z M 108.476562 224.257812 "/>
<path style=" stroke:none;fill-rule:nonzero;fill:rgb(100%,0%,0%);fill-opacity:1;" d="M 132.335938 224.257812 L 129.78125 224.257812 L 128.769531 221.207031 L 124.121094 221.207031 L 123.164062 224.257812 L 120.675781 224.257812 L 125.199219 210.816406 L 127.683594 210.816406 Z M 128.015625 218.941406 L 126.414062 213.953125 L 124.84375 218.941406 Z M 128.015625 218.941406 "/>
<path style=" stroke:none;fill-rule:nonzero;fill:rgb(100%,0%,0%);fill-opacity:1;" d="M 134.199219 224.257812 L 134.199219 210.816406 L 139.136719 210.816406 C 140.378906 210.816406 141.277344 210.941406 141.839844 211.183594 C 142.40625 211.421875 142.855469 211.851562 143.195312 212.46875 C 143.53125 213.085938 143.703125 213.792969 143.703125 214.585938 C 143.703125 215.59375 143.445312 216.429688 142.933594 217.089844 C 142.421875 217.742188 141.65625 218.15625 140.632812 218.328125 C 141.140625 218.667969 141.558594 219.046875 141.886719 219.453125 C 142.21875 219.863281 142.667969 220.589844 143.226562 221.636719 L 144.644531 224.257812 L 141.839844 224.257812 L 140.144531 221.335938 C 139.539062 220.289062 139.128906 219.632812 138.90625 219.363281 C 138.683594 219.085938 138.449219 218.902344 138.199219 218.804688 C 137.953125 218.699219 137.558594 218.648438 137.019531 218.648438 L 136.542969 218.648438 L 136.542969 224.257812 Z M 136.542969 216.503906 L 138.28125 216.503906 C 139.40625 216.503906 140.109375 216.445312 140.390625 216.335938 C 140.667969 216.226562 140.886719 216.039062 141.046875 215.769531 C 141.207031 215.5 141.285156 215.164062 141.285156 214.761719 C 141.285156 214.308594 141.179688 213.945312 140.96875 213.667969 C 140.761719 213.386719 140.46875 213.210938 140.085938 213.136719 C 139.898438 213.105469 139.328125 213.089844 138.375 213.089844 L 136.542969 213.089844 Z M 136.542969 216.503906 "/>
<path style=" stroke:none;fill-rule:nonzero;fill:rgb(100%,0%,0%);fill-opacity:1;" d="M 146.453125 224.257812 L 146.453125 210.816406 L 148.800781 210.816406 L 148.800781 224.257812 Z M 146.453125 224.257812 "/>
<path style=" stroke:none;fill-rule:nonzero;fill:rgb(100%,0%,0%);fill-opacity:1;" d="M 151.035156 219.886719 L 153.316406 219.628906 C 153.453125 220.515625 153.730469 221.167969 154.148438 221.582031 C 154.574219 221.996094 155.140625 222.207031 155.855469 222.207031 C 156.609375 222.207031 157.179688 222.023438 157.558594 221.65625 C 157.945312 221.28125 158.136719 220.847656 158.136719 220.351562 C 158.136719 220.035156 158.054688 219.765625 157.890625 219.546875 C 157.734375 219.320312 157.453125 219.125 157.050781 218.960938 C 156.777344 218.847656 156.148438 218.652344 155.171875 218.371094 C 153.914062 218.011719 153.03125 217.570312 152.523438 217.042969 C 151.8125 216.304688 151.453125 215.402344 151.453125 214.339844 C 151.453125 213.652344 151.621094 213.015625 151.953125 212.421875 C 152.292969 211.824219 152.777344 211.367188 153.40625 211.054688 C 154.039062 210.742188 154.800781 210.589844 155.695312 210.589844 C 157.152344 210.589844 158.25 210.957031 158.984375 211.699219 C 159.726562 212.4375 160.113281 213.425781 160.148438 214.660156 L 157.804688 214.777344 C 157.703125 214.085938 157.488281 213.59375 157.152344 213.292969 C 156.828125 212.988281 156.332031 212.835938 155.671875 212.835938 C 154.988281 212.835938 154.457031 212.996094 154.070312 213.320312 C 153.820312 213.527344 153.699219 213.804688 153.699219 214.15625 C 153.699219 214.472656 153.8125 214.746094 154.046875 214.972656 C 154.34375 215.257812 155.0625 215.558594 156.203125 215.871094 C 157.34375 216.179688 158.1875 216.503906 158.730469 216.839844 C 159.28125 217.171875 159.710938 217.625 160.015625 218.207031 C 160.328125 218.78125 160.484375 219.496094 160.484375 220.34375 C 160.484375 221.113281 160.296875 221.835938 159.929688 222.507812 C 159.558594 223.179688 159.035156 223.679688 158.359375 224.011719 C 157.683594 224.335938 156.839844 224.496094 155.832031 224.496094 C 154.359375 224.496094 153.234375 224.105469 152.445312 223.324219 C 151.660156 222.535156 151.1875 221.390625 151.035156 219.886719 Z M 151.035156 219.886719 "/>
<path style=" stroke:none;fill-rule:nonzero;fill:rgb(100%,0%,0%);fill-opacity:1;" d="M 173.554688 224.257812 L 171.003906 224.257812 L 169.988281 221.207031 L 165.34375 221.207031 L 164.382812 224.257812 L 161.894531 224.257812 L 166.421875 210.816406 L 168.902344 210.816406 Z M 169.234375 218.941406 L 167.632812 213.953125 L 166.0625 218.941406 Z M 169.234375 218.941406 "/>
<path style=" stroke:none;fill-rule:nonzero;fill:rgb(100%,0%,0%);fill-opacity:1;" d="M 175.433594 224.257812 L 175.433594 210.816406 L 177.714844 210.816406 L 182.472656 219.792969 L 182.472656 210.816406 L 184.652344 210.816406 L 184.652344 224.257812 L 182.296875 224.257812 L 177.613281 215.492188 L 177.613281 224.257812 Z M 175.433594 224.257812 "/>
<path style=" stroke:none;fill-rule:nonzero;fill:rgb(0%,10.980392%,27.058824%);fill-opacity:1;" d="M 50.152344 246.449219 L 55.277344 245.964844 C 55.585938 247.640625 56.207031 248.867188 57.144531 249.652344 C 58.09375 250.4375 59.367188 250.828125 60.96875 250.828125 C 62.664062 250.828125 63.941406 250.484375 64.792969 249.789062 C 65.660156 249.085938 66.09375 248.265625 66.09375 247.332031 C 66.09375 246.734375 65.910156 246.226562 65.542969 245.808594 C 65.1875 245.382812 64.558594 245.015625 63.65625 244.703125 C 63.039062 244.496094 61.632812 244.125 59.4375 243.59375 C 56.617188 242.914062 54.636719 242.078125 53.496094 241.085938 C 51.894531 239.691406 51.09375 237.988281 51.09375 235.980469 C 51.09375 234.6875 51.46875 233.484375 52.214844 232.363281 C 52.976562 231.234375 54.058594 230.375 55.472656 229.785156 C 56.894531 229.199219 58.609375 228.902344 60.613281 228.902344 C 63.886719 228.902344 66.347656 229.601562 67.996094 230.996094 C 69.65625 232.394531 70.53125 234.257812 70.613281 236.585938 L 65.347656 236.8125 C 65.121094 235.507812 64.632812 234.574219 63.886719 234.007812 C 63.152344 233.433594 62.042969 233.144531 60.558594 233.144531 C 59.03125 233.144531 57.832031 233.449219 56.964844 234.058594 C 56.410156 234.453125 56.128906 234.976562 56.128906 235.636719 C 56.128906 236.234375 56.390625 236.75 56.914062 237.175781 C 57.578125 237.71875 59.191406 238.28125 61.753906 238.871094 C 64.3125 239.460938 66.207031 240.070312 67.425781 240.707031 C 68.660156 241.328125 69.621094 242.1875 70.308594 243.285156 C 71.011719 244.367188 71.359375 245.710938 71.359375 247.316406 C 71.359375 248.769531 70.945312 250.128906 70.113281 251.398438 C 69.285156 252.667969 68.109375 253.613281 66.589844 254.238281 C 65.074219 254.847656 63.179688 255.15625 60.914062 255.15625 C 57.617188 255.15625 55.085938 254.417969 53.320312 252.941406 C 51.550781 251.453125 50.496094 249.289062 50.152344 246.449219 Z M 50.152344 246.449219 "/>
<path style=" stroke:none;fill-rule:nonzero;fill:rgb(0%,10.980392%,27.058824%);fill-opacity:1;" d="M 101.425781 254.703125 L 95.699219 254.703125 L 93.421875 248.941406 L 82.996094 248.941406 L 80.84375 254.703125 L 75.253906 254.703125 L 85.414062 229.335938 L 90.984375 229.335938 Z M 91.730469 244.667969 L 88.136719 235.253906 L 84.613281 244.667969 Z M 91.730469 244.667969 "/>
<path style=" stroke:none;fill-rule:nonzero;fill:rgb(0%,10.980392%,27.058824%);fill-opacity:1;" d="M 106.335938 229.335938 L 116.761719 229.335938 C 118.828125 229.335938 120.363281 229.421875 121.371094 229.597656 C 122.390625 229.757812 123.296875 230.101562 124.09375 230.632812 C 124.898438 231.164062 125.570312 231.875 126.105469 232.761719 C 126.636719 233.640625 126.90625 234.625 126.90625 235.722656 C 126.90625 236.910156 126.574219 238 125.90625 238.992188 C 125.253906 239.984375 124.367188 240.726562 123.238281 241.222656 C 124.828125 241.675781 126.050781 242.441406 126.90625 243.527344 C 127.757812 244.609375 128.183594 245.886719 128.183594 247.351562 C 128.183594 248.503906 127.90625 249.628906 127.347656 250.726562 C 126.804688 251.808594 126.050781 252.679688 125.089844 253.335938 C 124.140625 253.984375 122.964844 254.382812 121.566406 254.53125 C 120.6875 254.625 118.570312 254.683594 115.214844 254.703125 L 106.335938 254.703125 Z M 111.601562 233.558594 L 111.601562 239.425781 L 115.054688 239.425781 C 117.105469 239.425781 118.382812 239.394531 118.878906 239.339844 C 119.78125 239.234375 120.488281 238.933594 120.996094 238.4375 C 121.519531 237.929688 121.78125 237.265625 121.78125 236.449219 C 121.78125 235.664062 121.554688 235.03125 121.105469 234.546875 C 120.664062 234.050781 120.007812 233.75 119.128906 233.644531 C 118.609375 233.585938 117.105469 233.558594 114.628906 233.558594 Z M 111.601562 243.648438 L 111.601562 250.429688 L 116.476562 250.429688 C 118.375 250.429688 119.582031 250.378906 120.089844 250.273438 C 120.871094 250.136719 121.507812 249.800781 121.992188 249.269531 C 122.492188 248.730469 122.742188 248.007812 122.742188 247.109375 C 122.742188 246.347656 122.550781 245.699219 122.171875 245.171875 C 121.792969 244.640625 121.242188 244.253906 120.515625 244.011719 C 119.804688 243.769531 118.25 243.648438 115.855469 243.648438 Z M 111.601562 243.648438 "/>
<path style=" stroke:none;fill-rule:nonzero;fill:rgb(0%,10.980392%,27.058824%);fill-opacity:1;" d="M 158.253906 254.703125 L 152.523438 254.703125 L 150.246094 248.941406 L 139.820312 248.941406 L 137.667969 254.703125 L 132.082031 254.703125 L 142.242188 229.335938 L 147.808594 229.335938 Z M 148.554688 244.667969 L 144.960938 235.253906 L 141.441406 244.667969 Z M 148.554688 244.667969 "/>
<path style=" stroke:none;fill-rule:nonzero;fill:rgb(0%,10.980392%,27.058824%);fill-opacity:1;" d="M 163.164062 254.703125 L 163.164062 229.335938 L 168.429688 229.335938 L 168.429688 239.320312 L 178.75 239.320312 L 178.75 229.335938 L 184.015625 229.335938 L 184.015625 254.703125 L 178.75 254.703125 L 178.75 243.613281 L 168.429688 243.613281 L 168.429688 254.703125 Z M 163.164062 254.703125 "/>
</g>
</svg>
